<?xml version="1.0" standalone="no"?><svg xmlns="http://www.w3.org/2000/svg" viewBox="0 0 1440 320"><path fill="#008060" fill-opacity="1" d="M0,128L34.3,133.3C68.6,139,137,149,206,149.3C274.3,149,343,139,411,138.7C480,139,549,149,617,128C685.7,107,754,53,823,48C891.4,43,960,85,1029,128C1097.1,171,1166,213,1234,213.3C1302.9,213,1371,171,1406,149.3L1440,128L1440,0L1405.7,0C1371.4,0,1303,0,1234,0C1165.7,0,1097,0,1029,0C960,0,891,0,823,0C754.3,0,686,0,617,0C548.6,0,480,0,411,0C342.9,0,274,0,206,0C137.1,0,69,0,34,0L0,0Z"></path></svg>